<?xml version="1.0" encoding="utf-8"?>
<!-- Generator: Adobe Illustrator 15.0.3, SVG Export Plug-In . SVG Version: 6.00 Build 0)  -->
<!DOCTYPE svg PUBLIC "-//W3C//DTD SVG 1.1//EN" "http://www.w3.org/Graphics/SVG/1.1/DTD/svg11.dtd">
<svg version="1.1" id="Ebene_1" xmlns="http://www.w3.org/2000/svg" xmlns:xlink="http://www.w3.org/1999/xlink" x="0px" y="0px"
	 width="386.25px" height="234.95px" viewBox="0 0 386.25 234.95" enable-background="new 0 0 386.25 234.95" xml:space="preserve">
<g>
	<path d="M140.625,223.159c5.746-8.631,10.91-17.84,20.625-22.5C155.314,209.097,151.314,219.472,140.625,223.159z"/>
	<path d="M215.625,1.909c5.621,16.5-3.773,31.838-13.125,39.375c1.151,26.424-8.922,48.641-5.625,69.375
		c2.336,14.685,15.578,24.757,15,41.25c29.604-3.656,87.303-11.805,129.375-18.75c20.819-3.438,44.122-11.09,45,16.875
		c-45.019,21.648-110.429,12.949-157.5,31.875c-15.91,6.396-27.777,21.67-45,16.875c-16.724,15.277-39.041,50.297-73.125,30
		c10.063-16.812,26.395-27.354,39.375-41.25c-3.494-8.381-11.418-12.332-15-20.625c-23.617-8.215-46.564-19.729-69.375-30
		C43.039,126.737,18.199,120.696,0,105.034c21.188-36.057,68.168,2.5,95.625,15c26.266,11.957,51.332,19.027,69.375,30
		c9.926-21.43,25.949-67.789,18.75-105c-2.972-15.348-21.955-28.549-9.375-43.125C189.242-0.704,202.676-0.567,215.625,1.909z
		 M180,7.534c-5.529,11.701,5.387,21.713,9.375,30c1.235,15.014-2.482,34.982,1.875,46.875c-2.301-34.176,11.391-52.359,20.625-75
		C204.041,6.726,185.514,6.483,180,7.534z M90,121.909c-24.236-10.492-63.033-36.174-82.5-16.875
		c44.85,17.648,85.914,39.085,131.25,56.25c4.521-3.604,10.994-5.256,13.125-11.25C132.945,144.64,113.094,131.907,90,121.909z
		 M176.25,151.909c10.588-2.312,19.508,4.418,26.25,0c0-2.5,0-5,0-7.5c-3.732-4.549-8.01,3.164-9.375-3.75
		c-3.332-7.996,2.188-18.139-5.625-24.375C183.705,128.112,175.203,135.237,176.25,151.909z M146.25,166.909c0,1.875,0,3.75,0,5.625
		c22.256,0.504,52.186,5.746,60-13.125C181.102,161.53,159.398,149.575,146.25,166.909z M223.125,157.534
		c0.375,7.75,10.397,5.852,9.375,15c25.026-3.904,45.008-3.332,63.75-15c-9.845-1.779-26.603,7.627-31.875-1.875
		C252.055,163.522,239.266,154.944,223.125,157.534z M206.25,176.284c1.809,3.816,7.199,4.051,13.125,3.75
		c2.602-2.398,1.147-8.852,3.75-11.25C217.15,173.877,208.557,166.282,206.25,176.284z M157.5,181.909
		c7.75,11.508,36.451,7.703,50.625,3.75C197.072,179.608,172.619,177.728,157.5,181.909z M140.625,215.659
		c-0.65-13.184,20.203-14.756,15-26.25c-10.359,14.016-25.224,23.527-35.625,37.5c25.391,7.055,36.397-12.559,46.875-26.25
		C151.809,192.349,149.227,211.39,140.625,215.659z"/>
</g>
</svg>
