<svg version="1.1" id="Layer_1" xmlns="http://www.w3.org/2000/svg" xmlns:xlink="http://www.w3.org/1999/xlink" x="0px" y="0px" width="120px" height="120px" viewBox="0 0 50 50" enable-background="new 0 0 120 120" xml:space="preserve">
    <g>
        <circle cx="25" cy="19.387" r="8.572"></circle>

        <path d="M10.714,19.387c0-1.578-1.279-2.857-2.857-2.857S5,17.809,5,19.387c0,10.075,7.451,18.41,17.143,19.795 v-5.799c-2.654-0.539-5.185-1.836-7.244-3.895C12.108,26.699,10.714,23.043,10.714,19.387z"></path>

        <path d="M42.143,16.53c-1.577,0-2.856,1.279-2.856,2.857c0,3.656-1.395,7.313-4.185,10.102
            c-2.059,2.059-4.59,3.355-7.244,3.895v5.799C37.549,37.797,45,29.462,45,19.387C45,17.809,43.721,16.53,42.143,16.53z"></path>
    </g>
</svg>
